<svg width="64" height="64" viewBox="0 0 64 64" fill="none" xmlns="http://www.w3.org/2000/svg">
<rect x="0.5" y="0.5" width="63" height="63" fill="white" stroke="#E3E3E3"/>
<path d="M35.0769 30.7692C36.0965 30.7692 36.9231 29.9427 36.9231 28.9231C36.9231 27.9035 36.0965 27.0769 35.0769 27.0769C34.0573 27.0769 33.2308 27.9035 33.2308 28.9231C33.2308 29.9427 34.0573 30.7692 35.0769 30.7692Z" fill="#616161"/>
<path fillRule="evenodd" clipRule="evenodd" d="M30.7913 24H33.2087C34.2092 24 35.0161 24 35.6695 24.0534C36.3423 24.1083 36.9332 24.2245 37.48 24.503C38.3484 24.9455 39.0545 25.6516 39.497 26.52C39.7755 27.0668 39.8917 27.6577 39.9466 28.3305C40 28.9839 40 29.7908 40 30.7912V33.2088C40 34.2092 40 35.0161 39.9466 35.6695C39.8917 36.3423 39.7755 36.9332 39.497 37.48C39.0545 38.3484 38.3484 39.0545 37.48 39.497C36.9332 39.7755 36.3423 39.8917 35.6695 39.9466C35.0161 40 34.2092 40 33.2088 40H30.7912C29.7908 40 28.9839 40 28.3305 39.9466C27.6577 39.8917 27.0668 39.7755 26.52 39.497C25.6516 39.0545 24.9455 38.3484 24.503 37.48C24.2245 36.9332 24.1083 36.3423 24.0534 35.6695C24 35.0161 24 34.2092 24 33.2088V30.7913C24 29.7908 24 28.9839 24.0534 28.3305C24.1083 27.6577 24.2245 27.0668 24.503 26.52C24.9455 25.6516 25.6516 24.9455 26.52 24.503C27.0668 24.2245 27.6577 24.1083 28.3305 24.0534C28.9839 24 29.7908 24 30.7913 24ZM28.4808 25.8934C27.9222 25.939 27.6013 26.0241 27.3582 26.148C26.8371 26.4135 26.4135 26.8371 26.148 27.3582C26.0241 27.6013 25.939 27.9222 25.8934 28.4808C25.8469 29.0502 25.8462 29.7816 25.8462 30.8308V32.5889L26.7358 31.5214C27.5466 30.5484 29.0178 30.4817 29.9134 31.3773L33.2308 34.6946L34.6826 33.2428C35.5904 32.335 37.0856 32.4179 37.8875 33.4203L38.1534 33.7527C38.1538 33.5697 38.1538 33.3756 38.1538 33.1692V30.8308C38.1538 29.7816 38.1531 29.0502 38.1066 28.4808C38.061 27.9222 37.9759 27.6013 37.852 27.3582C37.5865 26.8371 37.1629 26.4135 36.6418 26.148C36.3987 26.0241 36.0778 25.939 35.5192 25.8934C34.9498 25.8469 34.2184 25.8462 33.1692 25.8462H30.8308C29.7816 25.8462 29.0502 25.8469 28.4808 25.8934ZM25.8934 35.5192C25.8907 35.4865 25.8882 35.4534 25.8858 35.4197C25.9045 35.4008 25.9226 35.381 25.9399 35.3602L28.154 32.7033C28.2698 32.5643 28.48 32.5547 28.608 32.6827L32.578 36.6528C32.9385 37.0133 33.523 37.0133 33.8835 36.6528L35.9881 34.5482C36.1177 34.4185 36.3313 34.4303 36.4459 34.5735L37.9387 36.4395C37.9123 36.5137 37.8834 36.5802 37.852 36.6418C37.5865 37.1629 37.1629 37.5865 36.6418 37.852C36.3987 37.9759 36.0778 38.061 35.5192 38.1066C34.9498 38.1531 34.2184 38.1538 33.1692 38.1538H30.8308C29.7816 38.1538 29.0502 38.1531 28.4808 38.1066C27.9222 38.061 27.6013 37.9759 27.3582 37.852C26.8371 37.5865 26.4135 37.1629 26.148 36.6418C26.0241 36.3987 25.939 36.0778 25.8934 35.5192Z" fill="#616161"/>
</svg>
