<svg width="274" height="362" viewBox="0 0 274 362" fill="none" xmlns="http://www.w3.org/2000/svg">
<path d="M137 22.6011L245.253 85.2008V210.4L137 273L28.7468 210.4V85.2008L137 22.6011Z" fill="#009ED8"/>
<path d="M86.7686 180.223V68.7181C98.4171 54.2125 109.07 62.6741 112.941 68.7181V120.614L233.268 0.564277C249.749 -2.81213 252.308 9.78683 251.528 16.5084L86.7686 180.223Z" fill="#0ACF83"/>
<path d="M86.7686 237.516V202.212L115.778 174.718L132.934 191.277L86.7686 237.516Z" fill="white"/>
<path d="M201.888 235.542L127.632 161.284L197.816 90.3628C217.779 88.1134 217.779 101.506 215.284 108.484L162.689 161.284L224.409 222.507L201.888 235.542Z" fill="white"/>
<path d="M9.56357 316.818V351H3.37145V316.818H9.56357ZM44.3588 316.818V351H38.8509L22.7448 327.717H22.461V351H16.2689V316.818H21.8101L37.8996 340.118H38.2V316.818H44.3588ZM55.679 316.818L64.5749 343.723H64.9254L73.8047 316.818H80.6143L68.5639 351H60.9197L48.886 316.818H55.679ZM85.1166 351V316.818H107.348V322.009H91.3087V331.289H106.196V336.479H91.3087V345.809H107.482V351H85.1166ZM141.755 316.818V351H136.247L120.141 327.717H119.858V351H113.665V316.818H119.207L135.296 340.118H135.597V316.818H141.755ZM147 322.009V316.818H174.272V322.009H163.707V351H157.565V322.009H147ZM208.558 333.909C208.558 337.592 207.868 340.747 206.489 343.373C205.12 345.987 203.251 347.99 200.881 349.381C198.522 350.772 195.846 351.467 192.853 351.467C189.86 351.467 187.178 350.772 184.808 349.381C182.449 347.979 180.58 345.971 179.2 343.356C177.831 340.73 177.147 337.581 177.147 333.909C177.147 330.226 177.831 327.077 179.2 324.462C180.58 321.836 182.449 319.828 184.808 318.437C187.178 317.046 189.86 316.351 192.853 316.351C195.846 316.351 198.522 317.046 200.881 318.437C203.251 319.828 205.12 321.836 206.489 324.462C207.868 327.077 208.558 330.226 208.558 333.909ZM202.333 333.909C202.333 331.317 201.927 329.13 201.114 327.35C200.313 325.558 199.201 324.206 197.776 323.294C196.352 322.371 194.711 321.909 192.853 321.909C190.995 321.909 189.353 322.371 187.929 323.294C186.505 324.206 185.387 325.558 184.574 327.35C183.773 329.13 183.373 331.317 183.373 333.909C183.373 336.502 183.773 338.694 184.574 340.485C185.387 342.265 186.505 343.617 187.929 344.541C189.353 345.453 190.995 345.909 192.853 345.909C194.711 345.909 196.352 345.453 197.776 344.541C199.201 343.617 200.313 342.265 201.114 340.485C201.927 338.694 202.333 336.502 202.333 333.909ZM214.412 351V316.818H227.231C229.857 316.818 232.06 317.274 233.84 318.187C235.631 319.099 236.983 320.379 237.896 322.026C238.819 323.661 239.281 325.569 239.281 327.75C239.281 329.942 238.814 331.845 237.879 333.458C236.956 335.061 235.593 336.301 233.79 337.18C231.987 338.048 229.773 338.482 227.147 338.482H218.018V333.342H226.313C227.848 333.342 229.106 333.13 230.085 332.707C231.064 332.273 231.787 331.645 232.254 330.821C232.733 329.987 232.972 328.963 232.972 327.75C232.972 326.538 232.733 325.503 232.254 324.646C231.776 323.778 231.047 323.122 230.068 322.676C229.089 322.22 227.826 321.992 226.279 321.992H220.605V351H214.412ZM232.071 335.511L240.533 351H233.623L225.311 335.511H232.071ZM241.313 316.818H248.306L256.668 331.94H257.002L265.364 316.818H272.357L259.923 338.249V351H253.747V338.249L241.313 316.818Z" fill="#009ED8"/>
</svg>
